<svg viewBox="0 0 240 220"><rect id="middle" x="20" y="100" width="200" height="60" rx="30"></rect><path id="top" d="M 60,100L 50,100C 33.4357078,100 20,113.427814 20,130L 20,130C 20,146.568541 33.4331197,160  50,160L190,160C206.570288,160 220,146.572314 220,130L220,100C220,-60 180, 80 160,100C140,120 100,160 100,160"></path><path id="bottom" d="M180,160L190,160C206.564295,160 220,146.572186 220,130L220,130C220,113.431458 206.56688,100 190,100L 50,100C33.4297125,100 20,113.435296 20,130C20,130 20,120 20,140C20,220 180,200 120,140C100,120 80,100 80,100"></path></svg>